<?xml version="1.0" encoding="UTF-8" standalone="no"?><!DOCTYPE svg PUBLIC "-//W3C//DTD SVG 1.1//EN" "http://www.w3.org/Graphics/SVG/1.1/DTD/svg11.dtd"><svg width="100%" height="100%" viewBox="0 0 3508 875" version="1.1" xmlns="http://www.w3.org/2000/svg" xmlns:xlink="http://www.w3.org/1999/xlink" xml:space="preserve" xmlns:serif="http://www.serif.com/" style="fill-rule:evenodd;clip-rule:evenodd;stroke-linejoin:round;stroke-miterlimit:2;"><rect id="Logotype_Black" x="0" y="0.713" width="3507.87" height="873.315" style="fill:none;"/><g><path d="M673.81,436.018c55.034,0.688 113.445,1.488 174.508,2.417l4.307,265.413l-76.137,0l-5.075,-232.035l-0,-10.877l-2.176,0l-6.526,10.877l-27.554,43.507l-39.881,188.528l-78.312,0l56.846,-267.83Zm6.199,-29.207l50.072,-235.919l78.312,0l-39.881,186.354l2.901,-0l5.8,-8.702l102.966,-177.652l76.137,0l-109.492,175.477l0.943,58.111c-58.576,0.891 -114.711,1.662 -167.758,2.331Z" style="fill-rule:nonzero;"/><path d="M976.637,402.387l84.095,-231.495l95.714,0l-32.63,532.956l-76.136,0l7.976,-108.766l-75.412,-0l-36.98,108.766l-76.137,0l95.744,-263.565c23.322,0.398 46.943,0.815 70.821,1.251l-24.443,70.885l53.658,0l13.052,-168.225l0.725,-13.777l-4.351,-0l-5.075,13.777l-19.629,56.923c-23.917,0.442 -47.585,0.865 -70.992,1.27Z" style="fill-rule:nonzero;"/><path d="M1202.7,444.076c21.957,0.51 44.088,1.041 66.362,1.594l-0.22,2.214l-2.9,17.403l5.801,0l6.526,-17.403l0.654,-1.969c18.339,0.46 36.771,0.935 55.28,1.425l-1.551,4.17l-89.189,252.338l-60.909,0l20.146,-259.772Zm293.95,-51.996l-1.052,0.032l-13.397,41.614l-93.716,270.122l-60.909,0l16.678,-252.338l0.362,-3.893c18.321,0.489 36.71,0.994 55.152,1.515l1.608,0.045l-2.014,16.11l5.801,0l5.801,-17.403l89.914,-276.992l72.511,0l-76.739,221.188Zm-222.758,5.037c-22.716,0.567 -45.285,1.111 -67.677,1.632l17.67,-227.857l72.511,0l-22.504,226.225Zm132.621,-3.533c-37.314,1.06 -74.42,2.056 -111.187,2.993l75.032,-225.685l56.558,0l-20.403,222.692Z" style="fill-rule:nonzero;"/><path d="M1590.55,389.124l79.276,-218.232l95.715,0l-32.63,532.956l-76.137,0l7.976,-108.766l-75.411,-0l-36.981,108.766l-76.136,0l91.115,-250.821c23.548,0.758 47.119,1.543 70.674,2.357l-19.668,57.035l53.659,0l13.052,-168.225l0.725,-13.777l-4.351,-0l-5.076,13.777l-14.656,42.502c-23.704,0.838 -47.434,1.647 -71.146,2.428Z" style="fill-rule:nonzero;"/><path d="M1820.77,460.711c25.994,1.041 51.887,2.119 77.625,3.236l-50.918,239.901l-78.312,0l51.605,-243.137Zm95.833,-82.549c-26.19,1.159 -52.551,2.276 -79.024,3.355l44.704,-210.625l78.311,0l-43.991,207.27Z" style="fill-rule:nonzero;"/><path d="M2018.6,170.892l78.312,0l-113.117,532.956l-78.312,0l113.117,-532.956Z" style="fill-rule:nonzero;"/><path d="M2086.21,470.7c8.937,0.414 17.843,0.833 26.719,1.256c17.051,0.812 33.99,1.626 50.807,2.443l-25.488,119.958c-2.175,13.777 -0.725,25.379 5.076,33.355c2.901,3.625 7.251,5.801 13.777,5.801c16.678,-0 25.379,-8.702 31.18,-19.578c2.175,-4.351 5.076,-10.877 7.251,-19.578l15.228,-73.236l73.236,-0l-15.228,73.236c-5.801,21.753 -14.502,41.331 -25.379,58.008c-10.876,14.503 -23.203,28.28 -39.881,39.156c-17.402,12.327 -38.43,18.128 -63.809,18.128c-25.379,0 -44.232,-5.801 -57.284,-18.128c-12.327,-10.876 -18.853,-24.653 -21.753,-39.156c-5.076,-16.677 -5.076,-35.53 -0.725,-58.008l26.273,-123.657Zm21.137,-99.484l19.3,-90.832c5.075,-21.028 13.052,-39.881 24.653,-57.284c10.877,-14.502 22.479,-29.004 39.156,-39.881c16.678,-10.877 38.431,-18.128 64.535,-18.128c26.104,0 44.232,7.251 56.559,18.128c12.327,10.877 19.578,25.379 22.478,39.881c5.076,15.953 5.076,34.805 1.45,57.284l-12.311,56.521l-73.236,0l12.311,-56.521c2.901,-13.777 1.451,-25.379 -5.075,-33.355c-2.901,-3.626 -8.702,-5.801 -16.678,-5.801c-13.777,-0 -22.478,10.151 -28.279,19.578c-2.176,5.076 -5.076,11.602 -7.251,19.578l-18.489,87.016c-24.255,1.187 -48.779,2.371 -73.541,3.551l-5.582,0.265Z" style="fill-rule:nonzero;"/><path d="M2360.93,358.534l16.605,-78.15c5.076,-21.028 13.052,-39.881 24.654,-57.284c10.876,-14.502 22.478,-29.004 39.156,-39.881c16.677,-10.877 38.43,-18.128 64.534,-18.128c26.104,0 44.232,7.251 56.559,18.128c12.327,10.877 19.578,25.379 22.478,39.881c5.076,15.953 5.076,34.805 1.451,57.284l-66.71,313.973c-5.801,21.753 -14.503,41.331 -25.379,58.008c-10.877,14.503 -23.204,28.28 -39.881,39.156c-17.403,12.327 -38.431,18.128 -63.81,18.128c-25.379,0 -44.232,-5.801 -57.284,-18.128c-12.327,-10.876 -18.853,-24.653 -21.753,-39.156c-5.076,-16.677 -5.076,-35.53 -0.725,-58.008l23.663,-111.374c26.312,1.373 52.143,2.749 77.436,4.124l-22.787,107.25c-3.626,13.777 -2.176,25.379 3.625,33.355c2.901,3.625 7.251,5.801 13.777,5.801c13.777,-0 22.479,-8.702 27.554,-19.578c2.176,-4.351 5.076,-10.877 7.252,-19.578l22.182,-104.403l1.123,0.063l16.948,-85.116l26.457,-124.517c2.9,-14.502 1.45,-25.379 -3.626,-33.355c-2.9,-3.626 -7.976,-5.801 -14.502,-5.801c-13.777,-0 -22.478,10.151 -27.554,19.578c-2.901,5.801 -5.076,12.327 -6.526,19.578l-15.695,73.868c-25.831,1.428 -52.264,2.856 -79.222,4.282Z" style="fill-rule:nonzero;"/><path d="M2593.69,495.078c23.763,1.451 47.297,3.034 70.535,4.728l-43.059,204.042l-71.786,0l44.31,-208.77Zm101.851,7.09c41.965,3.273 82.973,6.897 122.77,10.764l-40.521,190.916l-69.611,0l-12.638,-201.68Zm46.602,-164.166c-36.911,2.766 -75.832,5.434 -116.803,7.958l37.157,-175.068l69.611,0l10.035,167.11Zm115.308,-9.48c-23.386,2.101 -47.813,4.182 -73.301,6.225l34.971,-163.855l71.786,0l-33.456,157.63Z" style="fill-rule:nonzero;"/><g><path d="M2565.46,358.577c473.861,-26.576 695.668,-72.207 695.668,-72.207c-0,0 -304.293,63.083 -304.293,135.083c-0,72 464.293,166.917 464.293,166.917c-0,0 -386.448,-76.765 -857.962,-104.162c-1.901,-0.11 -3.8,-0.218 -5.696,-0.323c-6.063,-0.335 -12.168,-0.67 -18.312,-1.006l26.302,-124.302Z"/><path d="M1959.64,455.581c-70.543,-2.751 -142.279,-5.282 -214.457,-7.61l3.276,-53.141c76.033,-2.46 151.563,-5.144 225.712,-8.074l-14.531,68.825Z"/><path d="M2050.69,383.622c17.45,-0.741 34.804,-1.496 52.05,-2.266c139.368,-6.221 271.692,-12.556 390.679,-18.867l-24.789,116.624c-112.471,-5.879 -236.127,-11.77 -365.89,-17.562c-22.612,-1.01 -45.409,-1.994 -68.365,-2.953l16.315,-74.976Z"/><path d="M1420.28,438.719c-95.698,-2.305 -190.18,-4.306 -281.723,-6.043l2.128,-22.486c94.754,-1.8 192.641,-3.885 291.749,-6.297l-12.154,34.826Z"/><path d="M1491.24,402.302c64.267,-1.672 128.878,-3.488 193.304,-5.461l-4.57,49.085c-67.658,-2.064 -135.505,-3.955 -202.931,-5.688l14.197,-37.936Z"/><path d="M1428.43,403.893l-11.989,34.826" style="fill:none;"/><path d="M1070.8,431.412c-490.135,-8.867 -878.67,-9.959 -878.67,-9.959c-0,0 389.399,-1.093 880.304,-9.988l-1.634,19.947Z"/></g></g></svg>