<svg xmlns="http://www.w3.org/2000/svg" viewBox="0 0 3508 875">
  <path fill="none" d="M0 1h3508v873H0z"/>
  <path fill-rule="nonzero" d="m674 436 174 2 5 266h-77l-5-232v-11h-2l-6 11-28 43-40 189h-78l57-268Zm6-29 50-236h78l-39 186h2l6-8 103-178h76L847 346l1 58-168 3Zm297-5 84-231h95l-32 533h-76l8-109h-76l-37 109h-76l96-264 71 2-25 70h54l13-168 1-14h-5l-5 14-19 57-71 1Zm226 42 66 2v2l-3 17h6l6-17 1-2 55 1-1 5-90 252h-60l20-260Zm294-52h-1l-14 42-94 270h-60l16-252 1-4 55 1h1l-2 16h6l6-17 90-277h72l-76 221Zm-223 5-68 2 18-228h72l-22 226Zm133-3-112 3 75-226h57l-20 223Zm184-5 79-218h96l-33 533h-76l8-109h-76l-37 109h-76l91-251 71 2-20 57h54l13-168 1-14h-5l-5 14-14 43-71 2Zm230 72 77 3-51 240h-78l52-243Zm96-83-79 4 44-211h79l-44 207Zm102-207h78l-113 533h-79l114-533Zm67 300a20119 20119 0 0 1 78 3l-26 120c-2 14 0 26 5 34 3 3 8 6 14 6 17 0 25-9 31-20l8-20 15-73h73l-15 73a158 158 0 0 1-65 97c-18 13-39 19-64 19-26 0-45-6-58-18a69 69 0 0 1-21-40c-5-16-5-35-1-58l26-123Zm21-100 20-91a157 157 0 0 1 64-97c16-11 38-18 64-18s44 7 57 18c12 11 19 26 22 40 5 16 5 35 1 57l-12 57h-73l12-57c3-13 2-25-5-33-3-4-9-6-17-6-13 0-22 10-28 20l-7 19-19 87-73 4h-6Zm254-12 17-79a157 157 0 0 1 64-97c16-11 38-18 64-18s44 7 56 18c13 11 20 26 23 40 5 16 5 35 1 57l-66 314a158 158 0 0 1-65 97c-18 13-39 19-64 19-26 0-45-6-58-18a69 69 0 0 1-21-40c-6-16-6-35-1-58l23-111 78 4-23 107c-3 14-2 26 4 34 3 3 7 6 14 6 13 0 22-9 27-20 2-4 5-11 7-20l23-104h1l17-85 26-125c3-14 2-25-4-33-2-4-8-6-14-6-14 0-23 10-28 20-3 6-5 12-6 19l-16 74-79 5Zm233 136 70 5-43 204h-72l45-209Zm102 7 122 11-40 191h-70l-12-202Zm46-164-117 8 37-175h70l10 167Zm115-9-73 6 35-164h72l-34 158Z"/>
  <path d="M2565 359c474-27 696-73 696-73s-304 63-304 135 464 167 464 167-386-76-858-104a2304 2304 0 0 0-24-1l26-124Zm-605 97-215-8 3-53 226-8-14 69Zm91-72a23907 23907 0 0 0 442-22l-24 117a48773 48773 0 0 0-435-20l17-75Zm-631 55-281-6 2-23 291-6-12 35Zm71-37 194-5-5 49-203-6 14-38Z"/>
  <path d="M1071 431c-490-8-879-10-879-10s390-1 880-10l-1 20Z"/>
</svg>
